<?xml version="1.0" encoding="UTF-8" standalone="no"?>
<!DOCTYPE svg PUBLIC "-//W3C//DTD SVG 1.1//EN" "http://www.w3.org/Graphics/SVG/1.1/DTD/svg11.dtd">
<svg width="100%" height="100%" viewBox="0 0 100 100" version="1.1" xmlns="http://www.w3.org/2000/svg" xmlns:xlink="http://www.w3.org/1999/xlink" xml:space="preserve" xmlns:serif="http://www.serif.com/" style="fill-rule:evenodd;clip-rule:evenodd;stroke-linejoin:round;stroke-miterlimit:2;">
    <path d="M75.5,42.467L84.677,49.951C85.052,50.265 85.633,50.419 86.086,50.419C86.656,50.419 87.287,50.176 87.682,49.704C88.392,48.857 88.313,47.596 87.466,46.887L52.345,17.427C51.973,17.115 51.53,16.971 51.079,16.968C51.047,16.965 51.017,16.969 50.985,16.967C50.953,16.969 50.922,16.965 50.89,16.968C50.439,16.971 49.989,17.115 49.617,17.427L14.48,46.887C13.634,47.596 13.523,48.858 14.232,49.704C14.628,50.176 15.195,50.419 15.766,50.419C16.22,50.419 16.425,50.266 16.8,49.951L23.499,44.125L23.499,75.533C23.499,79.902 28.05,83.5 32.498,83.5L68.498,83.5C72.704,83.5 75.499,80.214 75.499,75.533L75.499,42.467L75.5,42.467ZM57.5,79.5L42.5,79.5L42.5,57.692C42.5,56.625 44.876,55.5 46.561,55.5L56.14,55.5C57.618,55.5 57.5,56.253 57.5,57.692L57.5,79.5ZM71.5,75.533C71.5,77.67 70.69,79.5 68.499,79.5L61.5,79.5L61.5,57.692C61.5,54.053 59.809,51.5 56.14,51.5L46.561,51.5C42.896,51.5 38.5,53.918 38.5,57.692L38.5,79.5L32.499,79.5C30.27,79.5 27.5,77.687 27.5,75.533L27.5,40.881C27.5,40.847 27.742,40.814 27.74,40.779L50.865,21.497L72.207,39.548C71.888,39.902 71.501,40.366 71.501,40.881L71.501,75.533L71.5,75.533Z" style="fill:white;fill-rule:nonzero;"/>
</svg>
