<?xml version="1.0" encoding="UTF-8" standalone="no"?>
<!DOCTYPE svg PUBLIC "-//W3C//DTD SVG 1.1//EN" "http://www.w3.org/Graphics/SVG/1.1/DTD/svg11.dtd">
<svg width="100%" height="100%" viewBox="0 0 48 48" version="1.1" xmlns="http://www.w3.org/2000/svg" xmlns:xlink="http://www.w3.org/1999/xlink" xml:space="preserve" xmlns:serif="http://www.serif.com/" style="fill-rule:evenodd;clip-rule:evenodd;stroke-linejoin:round;stroke-miterlimit:2;">
    <path id="Path-4" d="M19.803,12.872L19.445,13.257L17.645,15.136L17.299,14.965C15.908,14.307 14.453,14 13,14C7.281,14 3,18.613 3,24C3,29.406 7.386,34 13,34C15.719,34 18.414,32.823 20.228,30.911L25.172,25.692L30.723,19.801C31.862,18.592 33.446,18 35,18C38.277,18 41,20.632 41,24C41,27.208 38.39,30 35,30C33.117,30 31.99,29.411 30.507,27.946L29.821,27.245L29.173,26.56L28.421,25.747C28.225,25.533 27.888,25.53 27.689,25.741L25.637,27.911C25.455,28.104 25.454,28.404 25.635,28.597L27.579,30.671L27.84,30.938C28.183,31.28 28.531,31.593 28.908,31.891C30.598,33.221 32.585,34 35,34C40.665,34 45,29.381 45,24C45,18.55 40.613,14 35,14C32.188,14 29.54,15.155 27.576,17.28L25.222,19.821L22.522,22.705L17.331,28.147C16.139,29.397 14.625,30 13,30C9.598,30 7,27.215 7,24C7,20.781 9.592,18 13,18L13.235,18.005C13.636,18.021 14.075,18.077 14.47,18.172L14.654,18.22L12.831,20.04C12.737,20.134 12.653,20.219 12.567,20.306C12.271,20.606 12.455,21.114 12.874,21.155L18.797,21.728L20.442,21.877C20.741,21.902 20.995,21.66 20.984,21.36L20.67,13.194C20.654,12.748 20.106,12.544 19.803,12.872Z" style="fill:white;fill-rule:nonzero;"/>
</svg>
