<?xml version="1.0" encoding="UTF-8" standalone="no"?><!-- Generator: Gravit.io --><svg xmlns="http://www.w3.org/2000/svg" xmlns:xlink="http://www.w3.org/1999/xlink" style="isolation:isolate" viewBox="0 0 100 100" width="100pt" height="100pt"><defs><clipPath id="_clipPath_J70RN9KtF1tNv5ImylIwZqEu5Y6BHmYr"><rect width="100" height="100"/></clipPath></defs><g clip-path="url(#_clipPath_J70RN9KtF1tNv5ImylIwZqEu5Y6BHmYr)"><path d=" M 13.266 81 L 86.735 81 C 89.087 81 91 78.967 91 76.614 L 91 26.165 C 91 26.156 91.003 26.208 91.003 26.199 C 91.003 23.851 89.089 22 86.736 22 L 86.734 22 L 13.612 22 L 13.265 22 C 10.913 22 9 23.795 9 26.147 L 9 76.614 C 9 78.967 10.913 81 13.266 81 Z  M 38.525 49.122 L 13 74.442 L 13 29.89 L 38.525 49.122 L 38.525 49.122 Z  M 87 30.186 L 87 72.475 L 62.914 48.581 L 87 30.186 L 87 30.186 Z  M 59.723 51.02 C 59.767 51.073 59.805 51.189 59.855 51.24 L 85.764 77 L 16.221 77 L 41.754 51.613 L 49.235 57.22 C 49.591 57.488 50.014 57.608 50.438 57.608 C 50.866 57.608 51.293 57.464 51.652 57.19 L 59.723 51.02 L 59.723 51.02 Z  M 86.047 26 L 50.431 53.202 L 14.326 26 L 86.047 26 L 86.047 26 Z " fill="rgb(255,255,255)"/></g></svg>