<?xml version="1.0" encoding="UTF-8" standalone="no"?>
<!DOCTYPE svg PUBLIC "-//W3C//DTD SVG 1.1//EN" "http://www.w3.org/Graphics/SVG/1.1/DTD/svg11.dtd">
<svg width="100%" height="100%" viewBox="0 0 100 100" version="1.1" xmlns="http://www.w3.org/2000/svg" xmlns:xlink="http://www.w3.org/1999/xlink" xml:space="preserve" xmlns:serif="http://www.serif.com/" style="fill-rule:evenodd;clip-rule:evenodd;stroke-linejoin:round;stroke-miterlimit:2;">
    <path d="M24.841,85L74.509,85C75.613,85 76.509,84.045 76.509,82.94C76.509,65.696 64.944,52.625 60.691,48.412C64.528,45.227 66.977,40.411 66.977,35.046C66.977,25.481 59.196,17.692 49.631,17.692C40.066,17.692 32.285,25.47 32.285,35.035C32.285,40.388 34.724,45.178 38.548,48.363C34.215,52.718 22.841,65.842 22.841,82.941C22.841,84.046 23.736,85 24.841,85ZM36.285,35.032C36.285,27.673 42.272,21.686 49.631,21.686C56.99,21.686 62.977,27.673 62.977,35.032C62.977,42.391 56.99,48.378 49.631,48.378C42.272,48.378 36.285,42.391 36.285,35.032ZM42,50.645C44.306,51.781 46.89,52.408 49.63,52.408C52.357,52.408 54.927,51.803 57.225,50.677C60.152,53.489 71.529,65 72.449,81L26.9,81C27.809,66 38.888,53.691 42,50.645Z" style="fill:white;fill-rule:nonzero;"/>
</svg>
