<?xml version="1.0" encoding="UTF-8" standalone="no"?>
<!DOCTYPE svg PUBLIC "-//W3C//DTD SVG 1.1//EN" "http://www.w3.org/Graphics/SVG/1.1/DTD/svg11.dtd">
<svg width="100%" height="100%" viewBox="0 0 32 32" version="1.1" xmlns="http://www.w3.org/2000/svg" xmlns:xlink="http://www.w3.org/1999/xlink" xml:space="preserve" xmlns:serif="http://www.serif.com/" style="fill-rule:evenodd;clip-rule:evenodd;stroke-linecap:round;stroke-linejoin:round;stroke-miterlimit:10;">
    <circle cx="16" cy="5" r="2" style="fill:none;stroke:white;stroke-width:0.82px;"/>
    <path d="M5,5L14,5" style="fill:none;fill-rule:nonzero;stroke:white;stroke-width:1px;"/>
    <path d="M18,5L27,5" style="fill:none;fill-rule:nonzero;stroke:white;stroke-width:1px;"/>
    <path d="M16,7L16,21" style="fill:none;fill-rule:nonzero;stroke:white;stroke-width:1px;"/>
    <path d="M1,17C1,19.2 2.8,21 5,21C7.2,21 9,19.2 9,17L1,17Z" style="fill:none;fill-rule:nonzero;stroke:white;stroke-width:1.15px;"/>
    <path d="M5,5L1,17L9,17L5,5Z" style="fill:none;fill-rule:nonzero;stroke:white;stroke-width:1px;"/>
    <path d="M23,17C23,19.2 24.8,21 27,21C29.2,21 31,19.2 31,17L23,17Z" style="fill:none;fill-rule:nonzero;stroke:white;stroke-width:1.15px;"/>
    <path d="M27,5L23,17L31,17L27,5Z" style="fill:none;fill-rule:nonzero;stroke:white;stroke-width:1px;"/>
    <path d="M16,1L16,3" style="fill:none;fill-rule:nonzero;stroke:white;stroke-width:1px;"/>
    <path d="M24,30L8,30L8.5,28.4C8.8,27.6 9.5,27 10.4,27L21.5,27C22.4,27 23.1,27.6 23.4,28.4L24,30Z" style="fill:none;fill-rule:nonzero;stroke:white;stroke-width:1px;"/>
    <path d="M18,27L14,27L14,22C14,21.4 14.4,21 15,21L17,21C17.6,21 18,21.4 18,22L18,27Z" style="fill:none;fill-rule:nonzero;stroke:white;stroke-width:1px;"/>
</svg>
