<svg viewBox="0 0 512 512" xmlns="http://www.w3.org/2000/svg" fill-rule="evenodd" clip-rule="evenodd" stroke-linecap="round" stroke-linejoin="round" stroke-miterlimit="1.5"><path d="M165.432 43.134L60.498 131.67v337.196h391.003v-263.66l-93.268-93.267v112.998h-87.886v243.929h89.68l-1.794-243.929h-87.886l-104.915 85.524m0-267.327v425.733" stroke-width="8.313" fill="none" stroke="#fff"/><path fill="#fff" d="M78.369 135.379h69.23v14.158h-69.23zM93.1 172.595h54.5v14.158H93.1zm20.936 37.217H147.6v14.158h-33.564zm-35.667 37.216h69.23v14.158h-69.23zm7.753 37.217H147.6v14.158H86.122zM78.37 322.91h52.447v14.159H78.369zm-.001 35.768h69.23v14.158h-69.23zM93.1 395.895h54.5v14.158H93.1zM78.369 433.11h69.23v14.159h-69.23zm103.702-110.2h41.124v14.159h-41.124zm32.804 35.768h41.124v14.158h-41.124zm-41.125 37.217h41.124v14.158h-41.123zm41.125 36.441h41.124v14.158h-41.124zM298.466 256h41.124v14.158h-41.124zm0 33.92h41.124v14.159h-41.124zm0 33.922h41.124V338h-41.124zm0 33.922h41.124v14.158h-41.124zm0 33.921h41.124v14.158h-41.124zm0 33.921h41.124v14.158h-41.124zm70.266-233.815h44.04v14.158h-44.04zm0 33.597h57.067v14.158h-57.067zm0 33.596h44.04v14.158h-44.04zm0 33.596h57.067v14.158h-57.067zm.001 33.596h37.218v14.158h-37.218zm-.001 33.597h57.067v14.158h-57.067zm.001 33.596h28.533v14.158h-28.533zm-.001 33.596h57.067v14.158h-57.067z"/></svg>