<svg data-bbox="7.825 10.509 107.231 101.862" xmlns="http://www.w3.org/2000/svg" viewBox="0 0 123 123" fill-rule="evenodd" clip-rule="evenodd" stroke-linejoin="round" stroke-miterlimit="2" data-type="ugc"><g fill-rule="nonzero"><path d="M114.133 53.012c6.069 25.073-18.837 56.857-44.459 59.015C4.804 117.489.839 56.45 13.708 33.298c12.917-23.235 94.356-5.359 100.425 19.714z" fill="#fff"/><path d="M72.345 104.066c8.994 0 15.42-1.298 15.42-2.9 0-1.601-6.426-2.899-15.42-2.899-8.995 0-17.152 1.298-17.152 2.899 0 1.602 8.157 2.9 17.152 2.9zm-31.914-3.674c8.994 0 15.132-1.298 15.132-2.899s-6.138-2.9-15.132-2.9c-8.995 0-16.287 1.299-16.287 2.9s7.292 2.899 16.287 2.899z" fill="#7a7a7a"/><path d="M21.289 50.299s-1.219 1.317-3.206-2.867c-1.987-4.184-.638 5.215 1.536 7.199 2.173 1.985 2.294-.115 2.294-.115l-.624-4.217z" fill="#d35d59"/><path d="M30.694 46.092s-6.616-2.506-9.75 3.554c-3.134 6.058-.442 9.19 1.659 10.236 2.102 1.046 8.091-13.79 8.091-13.79zm54.528 41.45L83 99.929s-3.827 2.709-9.886 1.039c-6.06-1.673-2.677-7.711-2.677-7.711l14.785-5.715z" fill="#eb786a"/><path d="M51.384 90.683l-1.462 7.358s-3.971 1.672-8.359 0c-4.387-1.67-1.044-10.499-1.044-10.499l10.865 3.141z" fill="#d35d59"/><path d="M76.352 33.264s7.313-9.291 9.611-8.665c2.298.628-1.044 16.131 0 18.617 1.045 2.487-9.611-9.952-9.611-9.952z" fill="#eb786a"/><path d="M78.791 35.746s5.605-7.803 6.023-8.012c.418-.21-.646 8.119-.418 10.931.228 2.813-5.605-2.919-5.605-2.919z" fill="#d35d59"/><path d="M43.658 89.685l-2.303 8.775s-6.269 3.023-12.118-1.648c-.628-5.298-1.154-18.201-1.154-18.201l15.575 10.244" fill="#eb786a"/><path d="M20.775 61.467c-1.568 21.821 18.269 32.55 40.42 32.55 22.151 0 36.033-11.893 36.033-30.043s-17.01-34.744-37.6-34.744c-21.826 0-37.554 14.134-38.853 32.237z" fill="#f58a77"/><path d="M75.098 42.359c.314-1.566-7.619-15.218-9.924-14.103-2.305 1.115-3.552 19.826-2.089 22.762 1.462 2.938 11.699-7.092 12.013-8.659z" fill="#eb786a"/><path d="M72.341 41.628s-4.764-9.517-6.018-9.617c-1.253-.098-1.463 17.529.627 15.82 2.089-1.711 5.509-4.95 5.391-6.203zm-10.774-9.304s-11.731-1.725-22.523 4.661a3.845 3.845 0 00-.94 2.299s9.378-5.227 22.523-4.195c.114-1.19.94-2.765.94-2.765z" fill="#d35d59"/><path d="M57.652 93.438l2.089 8.074s3.385 1.595 11.973.583c1.4-2.382 3.07-13.455 3.07-13.455l-17.132 4.798z" fill="#f58a77"/><path d="M90.02 55.44c1.897-.895 10.288.91 10.288.91l-1.867 26.308s-7.284 1.055-10.302-.732c-3.018-1.786-4.788-6.386-4.261-13.808.527-7.422 4.244-11.783 6.142-12.678z" fill="#eb786a"/><path d="M93.376 69.078c-.516 7.266 1.752 13.344 5.065 13.58 3.312.234 6.415-5.463 6.931-12.728.515-7.265-1.753-13.345-5.064-13.58-3.314-.235-6.417 5.463-6.932 12.728z" fill="#f58a77"/><path d="M100.502 73.185a1.112 1.112 0 001.03 1.188l.391.028a1.112 1.112 0 001.187-1.031l.546-7.692a1.112 1.112 0 00-1.03-1.187l-.39-.028a1.112 1.112 0 00-1.188 1.03l-.546 7.692zm-4.357.154a1.112 1.112 0 001.03 1.187l.39.028a1.113 1.113 0 001.188-1.031l.545-7.69a1.111 1.111 0 00-1.029-1.188l-.391-.029a1.114 1.114 0 00-1.187 1.031l-.546 7.692z" fill="#d35d59"/><path d="M85.461 50.652c.726 2.312-.457 4.742-2.643 5.428-2.186.686-4.547-.631-5.272-2.943-.726-2.312.457-4.741 2.644-5.429 2.186-.686 4.546.632 5.271 2.944z" fill="#fff"/><path d="M85.029 50.787c.567 1.808-.357 3.707-2.066 4.244-1.709.537-3.554-.493-4.122-2.301-.567-1.808.358-3.708 2.067-4.244 1.709-.537 3.554.494 4.121 2.301z" fill="#221f1f"/><path d="M88.395 50.17c.798 1.552 2.281 2.38 3.313 1.85 1.032-.531 1.22-2.22.423-3.771-.799-1.552-2.282-2.381-3.313-1.85-1.032.531-1.222 2.219-.423 3.771z" fill="#fff"/><path d="M89.145 49.792c.624 1.214 1.784 1.86 2.591 1.446.806-.414.954-1.735.33-2.948-.625-1.213-1.785-1.86-2.591-1.446-.806.415-.955 1.734-.33 2.948z" fill="#221f1f"/><path d="M79.418 50.481a.757.757 0 101.514-.002.757.757 0 00-1.514.002zm10.019-2.218a.38.38 0 00.497.2.377.377 0 10-.295-.696.377.377 0 00-.202.496z" fill="#fff"/><path d="M36.996 26.109c1.903 6.433 8.663 10.104 15.096 8.2 6.433-1.905 10.103-8.665 8.199-15.097-1.904-6.433-8.663-10.105-15.097-8.2-6.433 1.905-10.104 8.664-8.198 15.097z" fill="#e9b027"/><path d="M39.1 25.486c1.561 5.271 7.099 8.278 12.369 6.718 5.27-1.561 8.278-7.098 6.717-12.369-1.56-5.27-7.098-8.279-12.368-6.718-5.271 1.561-8.278 7.099-6.718 12.369z" fill="#facc2f"/><path d="M40.788 21.47c0-.954-.422-2.406-.736-2.721-.309-.308-1.766-.736-2.72-.736.954 0 2.356-.374 2.72-.736.38-.38.736-1.766.736-2.72 0 .978.368 2.351.784 2.767.429.428 1.742.689 2.672.689-.954 0-2.361.378-2.719.736-.363.363-.737 1.767-.737 2.721zm-2.308.535c0-.34-.15-.856-.262-.968-.109-.11-.628-.262-.967-.263.339.001.838-.133.967-.262.135-.134.262-.628.262-.968 0 .349.132.838.279.985.153.153.62.245.951.245-.339 0-.839.135-.967.263-.13.129-.263.628-.263.968zm4.504 2.603c0-.472-.209-1.189-.364-1.344-.153-.153-.873-.364-1.344-.364.471 0 1.164-.185 1.344-.364.187-.187.364-.872.364-1.343 0 .483.182 1.162.387 1.367.212.212.86.34 1.32.34-.472 0-1.167.187-1.344.364-.179.179-.363.872-.363 1.344z" fill="#fff"/></g></svg>