<svg viewBox="0 0 512 512" xmlns="http://www.w3.org/2000/svg" fill-rule="evenodd" clip-rule="evenodd" stroke-linecap="round" stroke-linejoin="round" stroke-miterlimit="1.5"><circle cx="132.838" cy="220.21" r="7.141" fill="none" stroke="#fff" stroke-width="1.76" transform="translate(-364.977 -844.259) scale(4.73918)"/><path d="M299.79 403.33c1.582-15.72-14.776-41.575-38.23-41.791-23.45-.214-46.33 23.452-40.545 50.228 1.03 4.76 12.108 23.517 12.108 23.517l10.47-16.916 12.441 38.607s42.175-37.919 43.757-53.646z" fill="none" stroke="#fff" stroke-width="8.341"/><path d="M256.632 361.795c-14.253 15.28-20.208 31.764 2.69 49.827 20.628-16.536 23.34-34.9 7.28-49.827" fill="none" stroke="#fff" stroke-width="8.341"/><path d="M237.904 330.79l-13.018 34.918c28.463-5.616 51.23-4.906 70.23 0l-15.388-34.919c-14.474-1.602-28.402-1.559-41.824 0z" fill="none" stroke="#fff" stroke-width="8.341"/><path d="M119.306 242.511c-3.463-5.107-8.355-9.509-15.281-12.69 10.006-19.725 22.691-35.723 48.995-36.91 1.224 22.878-10.943 38.312-33.714 49.6" fill="none" stroke="#fff" stroke-width="1.67" transform="matrix(3.6549 -3.19858 3.37068 3.85156 -944.951 -216.207)"/></svg>