<svg viewBox="0 0 512 512" xmlns="http://www.w3.org/2000/svg" fill-rule="evenodd" clip-rule="evenodd" stroke-linecap="round" stroke-linejoin="round" stroke-miterlimit="1.5"><path fill="none" stroke="#fff" stroke-width="4.24" d="M181.943 115.146h125.916V256H181.943z" transform="matrix(3.00099 0 0 2.89788 -478.06 -281.77)"/><path d="M67.95 109.111l-39.03 89.067h454.158l-37.255-89.067H67.949z" fill="none" stroke="#fff" stroke-width="10.411"/><path d="M200.241 133.285l-8.063 31.141" fill="none" stroke="#fff" stroke-width="3.25" transform="matrix(2.2293 0 0 2.8601 -326.113 -272.097)"/><path d="M200.241 133.285l-8.063 31.141" fill="none" stroke="#fff" stroke-width="3.25" transform="matrix(-2.2293 0 0 2.8601 777.257 -272.097)"/><path d="M200.241 133.285l-8.063 31.141" fill="none" stroke="#fff" stroke-width="3.25" transform="matrix(-2.2293 0 0 2.8601 840.436 -272.097)"/><path d="M200.241 133.285l-8.063 31.141" fill="none" stroke="#fff" stroke-width="3.4" transform="matrix(1.95895 0 0 2.8601 -210.98 -272.097)"/><path d="M237.002 133.285l-.762 28.589" fill="none" stroke="#fff" stroke-width="1.29" transform="matrix(8.5803 0 0 3.11536 -1800.526 -306.12)"/><path d="M237.002 133.285l-.762 28.589" fill="none" stroke="#fff" stroke-width="1.16" transform="matrix(-9.7482 0 0 2.98775 2588.575 -285.46)"/><path fill="none" stroke="#fff" stroke-width="12.499" d="M196.57 259.541h120.636V460.09H196.569z"/></svg>